<?xml version="1.0" encoding="utf-8"?>
<!-- Generator: Adobe Illustrator 19.1.0, SVG Export Plug-In . SVG Version: 6.00 Build 0)  -->
<svg version="1.1" id="Layer_1" xmlns="http://www.w3.org/2000/svg" xmlns:xlink="http://www.w3.org/1999/xlink" x="0px" y="0px"
	 viewBox="0 0 513 500" style="enable-background:new 0 0 513 500;" xml:space="preserve">
<style type="text/css">
	.st0{fill-rule:evenodd;clip-rule:evenodd;}
</style>
<path class="st0" d="M256.3,0C114.8,0,0,114.8,0,256.3c0,113.2,73.4,209.3,175.3,243.2c12.8,2.4,17.5-5.6,17.5-12.4
	c0-6.1-0.2-22.2-0.3-43.6c-71.3,15.5-86.3-34.4-86.3-34.4c-11.7-29.6-28.5-37.5-28.5-37.5c-23.3-15.9,1.8-15.6,1.8-15.6
	c25.7,1.8,39.3,26.4,39.3,26.4c22.9,39.2,60,27.9,74.6,21.3c2.3-16.6,9-27.9,16.3-34.3c-56.9-6.5-116.8-28.5-116.8-126.7
	c0-28,10-50.9,26.4-68.8c-2.6-6.5-11.4-32.5,2.5-67.8c0,0,21.5-6.9,70.5,26.3c20.4-5.7,42.4-8.5,64.2-8.6
	c21.8,0.1,43.7,2.9,64.2,8.6c48.9-33.2,70.4-26.3,70.4-26.3c14,35.3,5.2,61.4,2.6,67.8c16.4,17.9,26.3,40.8,26.3,68.8
	c0,98.5-59.9,120.1-117,126.5c9.2,7.9,17.4,23.6,17.4,47.5c0,34.3-0.3,61.9-0.3,70.3c0,6.9,4.6,14.8,17.6,12.3
	c101.8-34,175.1-130,175.1-243.2C512.7,114.8,397.9,0,256.3,0z"/>
</svg>
